<?xml version="1.0" encoding="utf-8"?>
<!-- Generated by IcoMoon.io -->
<!DOCTYPE svg PUBLIC "-//W3C//DTD SVG 1.1//EN" "http://www.w3.org/Graphics/SVG/1.1/DTD/svg11.dtd">
<svg version="1.1" xmlns="http://www.w3.org/2000/svg" xmlns:xlink="http://www.w3.org/1999/xlink" width="28" height="32" viewBox="0 0 28 32">
<path d="M27.73 1.068v29.867c0 0.59-0.478 1.067-1.068 1.067h-8.533c-0.589 0-1.066-0.477-1.066-1.067 0-0.589 0.477-1.067 1.066-1.067h7.467v-27.733h-7.467c-0.589 0-1.066-0.478-1.066-1.067s0.477-1.067 1.066-1.067h8.533c0.59 0 1.068 0.478 1.068 1.067zM9.287 10.366l-5.331 4.569h16.307c0.588 0 1.066 0.478 1.066 1.067 0 0.59-0.478 1.067-1.066 1.067h-16.307l5.331 4.57c0.42 0.421 0.42 1.102 0 1.522s-1.102 0.42-1.522 0l-7.461-6.394c-0.219-0.22-0.31-0.508-0.3-0.796v-0.006c0.011-0.266 0.114-0.503 0.284-0.685 0.011-0.012 0.005-0.030 0.017-0.042l7.461-6.394c0.42-0.42 1.102-0.42 1.522 0 0.419 0.42 0.419 1.101-0.001 1.522z"></path>
</svg>
