<?xml version="1.0" encoding="utf-8"?>
<!-- Generated by IcoMoon.io -->
<!DOCTYPE svg PUBLIC "-//W3C//DTD SVG 1.1//EN" "http://www.w3.org/Graphics/SVG/1.1/DTD/svg11.dtd">
<svg version="1.1" xmlns="http://www.w3.org/2000/svg" xmlns:xlink="http://www.w3.org/1999/xlink" width="32" height="32" viewBox="0 0 32 32">
<path d="M30.104 31.995h-28.206c-1.564-2.397-0.93-7.196 0.634-8.795 0.745-0.762 6.33-2.201 9.002-2.856-2.822-2.192-4.543-6.26-4.543-10.139 0-5.638 1.638-10.208 9.006-10.208 7.369 0 9.006 4.57 9.006 10.208 0 3.867-1.712 7.923-4.52 10.12 2.612 0.651 8.28 2.131 9.003 2.875 1.552 1.599 2.17 6.398 0.618 8.795zM28.2 24.887c-1.025-0.55-5.438-1.789-9.2-2.691v-3.168c2.508-1.707 3.993-5.415 3.993-8.785 0-4.558-1.166-8.253-6.996-8.253s-6.996 3.695-6.996 8.253c0 3.373 1.488 7.084 3.999 8.79v3.192c-3.781 0.89-8.171 2.107-9.182 2.66-0.653 0.825-1.224 3.464-0.818 5.114h26c0.403-1.65-0.156-4.282-0.8-5.112z"></path>
</svg>
